<?xml version="1.0" standalone="no"?>
<!DOCTYPE svg PUBLIC "-//W3C//DTD SVG 20010904//EN"
 "http://www.w3.org/TR/2001/REC-SVG-20010904/DTD/svg10.dtd">
<svg version="1.0" xmlns="http://www.w3.org/2000/svg"
 width="1501.000000pt" height="1501.000000pt" viewBox="0 0 1501.000000 1501.000000"
 preserveAspectRatio="xMidYMid meet">
<metadata>
Created by potrace 1.11, written by Peter Selinger 2001-2013
</metadata>
<g transform="translate(0.000000,1501.000000) scale(0.100000,-0.100000)"
fill="#000000" stroke="none">
<path d="M7907 9514 c-1 -1 -41 -4 -89 -8 -79 -6 -227 -29 -267 -40 -9 -3 -27
-7 -41 -10 -59 -11 -177 -49 -272 -87 -585 -232 -1031 -722 -1202 -1319 -13
-47 -27 -102 -30 -123 -3 -20 -11 -58 -16 -84 -29 -129 -33 -475 -6 -634 74
-454 279 -843 607 -1155 215 -206 517 -381 794 -463 265 -77 392 -88 980 -86
547 2 534 1 611 88 79 90 87 216 20 312 -29 42 -54 63 -106 87 -44 21 -59 22
-540 24 -523 2 -541 3 -685 30 -11 3 -32 6 -47 9 -52 10 -227 73 -302 110
-246 120 -482 335 -626 570 -100 162 -167 348 -205 565 -13 70 -12 317 0 405
41 287 149 534 325 750 64 78 173 185 235 230 22 17 42 33 45 36 13 15 134 87
220 130 147 73 272 111 485 145 61 10 415 11 458 2 88 -19 162 -100 174 -188
13 -96 -62 -212 -162 -249 -40 -15 -65 -18 -115 -13 -88 8 -233 8 -300 0 -277
-36 -561 -216 -723 -460 -63 -94 -128 -241 -146 -329 -7 -31 -15 -69 -18 -85
-10 -42 -9 -270 0 -329 37 -230 169 -470 339 -616 145 -125 343 -223 490 -244
24 -3 52 -9 63 -12 33 -11 1176 -10 1182 1 9 13 7 1067 -1 1146 -15 137 -61
281 -131 406 -37 66 -133 191 -179 233 -14 14 -26 28 -26 32 0 4 22 38 50 74
215 284 188 681 -65 938 -97 99 -246 178 -385 203 -31 5 -387 13 -393 8z m183
-1477 c204 -38 373 -196 425 -396 13 -51 16 -116 16 -340 0 -152 0 -287 0
-301 l-1 -26 -307 1 c-343 1 -372 6 -490 71 -276 153 -356 528 -167 780 84
112 216 194 338 211 23 3 42 6 44 8 4 3 113 -3 142 -8z"/>
</g>
</svg>
